<?xml version="1.0" encoding="UTF-8" standalone="no"?>
<!DOCTYPE svg PUBLIC "-//W3C//DTD SVG 1.1//EN" "http://www.w3.org/Graphics/SVG/1.1/DTD/svg11.dtd">
<svg width="100%" height="100%" viewBox="0 0 405 390" version="1.1" xmlns="http://www.w3.org/2000/svg" xmlns:xlink="http://www.w3.org/1999/xlink" xml:space="preserve" style="fill-rule:evenodd;clip-rule:evenodd;stroke-linejoin:round;stroke-miterlimit:1.41421;">
    <g transform="matrix(1,0,0,1,-33.3222,-216.161)">
        <g transform="matrix(1,0,0,1,-117.323,-2.60698)">
            <g transform="matrix(1,0,0,1,208.972,278.494)">
                <path d="M25.393,59.94L14.488,41.051L25.393,22.162L47.204,22.162L58.11,41.051L47.204,59.94L25.393,59.94Z" style="fill:rgb(255,171,0);fill-rule:nonzero;"/>
            </g>
        </g>
        <g transform="matrix(1,0,0,1,-117.323,-2.60698)">
            <g transform="matrix(1,0,0,1,208.972,278.494)">
                <path d="M61.411,80.995L50.505,62.106L61.411,43.217L83.222,43.217L94.127,62.106L83.222,80.995L61.411,80.995Z" style="fill:rgb(255,192,65);fill-rule:nonzero;"/>
            </g>
        </g>
        <g transform="matrix(1,0,0,1,-117.323,-2.60698)">
            <g transform="matrix(1,0,0,1,208.972,278.494)">
                <path d="M25.393,101.385L14.488,82.496L25.393,63.607L47.204,63.607L58.11,82.496L47.204,101.385L25.393,101.385Z" style="fill:rgb(255,171,0);fill-rule:nonzero;"/>
            </g>
        </g>
        <g transform="matrix(1,0,0,1,-117.323,-2.60698)">
            <g transform="matrix(1,0,0,1,208.972,278.494)">
                <path d="M61.411,39.772L50.505,20.883L61.411,1.994L83.222,1.994L94.127,20.883L83.222,39.772L61.411,39.772Z" style="fill:rgb(255,221,153);fill-rule:nonzero;"/>
            </g>
        </g>
        <g transform="matrix(1,0,0,1,-117.323,-2.60698)">
            <g transform="matrix(1,0,0,1,208.972,278.494)">
                <path d="M97.315,59.94L86.409,41.051L97.315,22.162L119.126,22.162L130.031,41.051L119.126,59.94L97.315,59.94Z" style="fill:rgb(255,171,0);fill-rule:nonzero;"/>
            </g>
        </g>
        <g transform="matrix(1,0,0,1,-117.323,-2.60698)">
            <g transform="matrix(1,0,0,1,208.972,278.494)">
                <path d="M97.315,101.385L86.409,82.496L97.315,63.607L119.126,63.607L130.031,82.496L119.126,101.385L97.315,101.385Z" style="fill:rgb(255,171,0);fill-rule:nonzero;"/>
            </g>
        </g>
        <g transform="matrix(1,0,0,1,-117.323,-2.60698)">
            <g transform="matrix(1,0,0,1,208.972,278.494)">
                <path d="M61.411,122.218L50.505,103.329L61.411,84.44L83.222,84.44L94.127,103.329L83.222,122.218L61.411,122.218Z" style="fill:rgb(255,171,0);fill-rule:nonzero;"/>
            </g>
        </g>
        <g transform="matrix(1,0,0,1,-117.323,-2.60698)">
            <g transform="matrix(1,0,0,1,136.157,361.796)">
                <path d="M25.393,59.94L14.488,41.051L25.393,22.162L47.204,22.162L58.11,41.051L47.204,59.94L25.393,59.94Z" style="fill:rgb(255,221,153);fill-rule:nonzero;"/>
            </g>
        </g>
        <g transform="matrix(1,0,0,1,-117.323,-2.60698)">
            <g transform="matrix(1,0,0,1,136.157,361.796)">
                <path d="M61.411,80.995L50.505,62.106L61.411,43.217L83.222,43.217L94.127,62.106L83.222,80.995L61.411,80.995Z" style="fill:rgb(255,192,65);fill-rule:nonzero;"/>
            </g>
        </g>
        <g transform="matrix(1,0,0,1,-117.323,-2.60698)">
            <g transform="matrix(1,0,0,1,136.157,361.796)">
                <path d="M25.393,101.385L14.488,82.496L25.393,63.607L47.204,63.607L58.11,82.496L47.204,101.385L25.393,101.385Z" style="fill:rgb(255,171,0);fill-rule:nonzero;"/>
            </g>
        </g>
        <g transform="matrix(1,0,0,1,-117.323,-2.60698)">
            <g transform="matrix(1,0,0,1,136.157,361.796)">
                <path d="M61.411,39.772L50.505,20.883L61.411,1.994L83.222,1.994L94.127,20.883L83.222,39.772L61.411,39.772Z" style="fill:rgb(255,171,0);fill-rule:nonzero;"/>
            </g>
        </g>
        <g transform="matrix(1,0,0,1,-117.323,-2.60698)">
            <g transform="matrix(1,0,0,1,136.157,361.796)">
                <path d="M97.315,59.94L86.409,41.051L97.315,22.162L119.126,22.162L130.031,41.051L119.126,59.94L97.315,59.94Z" style="fill:rgb(255,171,0);fill-rule:nonzero;"/>
            </g>
        </g>
        <g transform="matrix(1,0,0,1,-117.323,-2.60698)">
            <g transform="matrix(1,0,0,1,136.157,361.796)">
                <path d="M97.315,101.385L86.409,82.496L97.315,63.607L119.126,63.607L130.031,82.496L119.126,101.385L97.315,101.385Z" style="fill:rgb(255,171,0);fill-rule:nonzero;"/>
            </g>
        </g>
        <g transform="matrix(1,0,0,1,-117.323,-2.60698)">
            <g transform="matrix(1,0,0,1,136.157,361.796)">
                <path d="M61.411,122.218L50.505,103.329L61.411,84.44L83.222,84.44L94.127,103.329L83.222,122.218L61.411,122.218Z" style="fill:rgb(255,171,0);fill-rule:nonzero;"/>
            </g>
        </g>
        <g transform="matrix(1,0,0,1,-117.323,-2.60698)">
            <g transform="matrix(1,0,0,1,244.462,381.912)">
                <path d="M25.393,59.94L14.488,41.051L25.393,22.162L47.204,22.162L58.11,41.051L47.204,59.94L25.393,59.94Z" style="fill:rgb(255,221,153);fill-rule:nonzero;"/>
            </g>
        </g>
        <g transform="matrix(1,0,0,1,-117.323,-2.60698)">
            <g transform="matrix(1,0,0,1,244.462,381.912)">
                <path d="M61.411,80.995L50.505,62.106L61.411,43.217L83.222,43.217L94.127,62.106L83.222,80.995L61.411,80.995Z" style="fill:rgb(255,171,0);fill-rule:nonzero;"/>
            </g>
        </g>
        <g transform="matrix(1,0,0,1,-117.323,-2.60698)">
            <g transform="matrix(1,0,0,1,244.462,381.912)">
                <path d="M25.393,101.385L14.488,82.496L25.393,63.607L47.204,63.607L58.11,82.496L47.204,101.385L25.393,101.385Z" style="fill:rgb(255,171,0);fill-rule:nonzero;"/>
            </g>
        </g>
        <g transform="matrix(1,0,0,1,-117.323,-2.60698)">
            <g transform="matrix(1,0,0,1,244.462,381.912)">
                <path d="M61.411,39.772L50.505,20.883L61.411,1.994L83.222,1.994L94.127,20.883L83.222,39.772L61.411,39.772Z" style="fill:rgb(255,192,65);fill-rule:nonzero;"/>
            </g>
        </g>
        <g transform="matrix(1,0,0,1,-117.323,-2.60698)">
            <g transform="matrix(1,0,0,1,244.462,381.912)">
                <path d="M97.315,59.94L86.409,41.051L97.315,22.162L119.126,22.162L130.031,41.051L119.126,59.94L97.315,59.94Z" style="fill:rgb(255,171,0);fill-rule:nonzero;"/>
            </g>
        </g>
        <g transform="matrix(1,0,0,1,-117.323,-2.60698)">
            <g transform="matrix(1,0,0,1,244.462,381.912)">
                <path d="M97.315,101.385L86.409,82.496L97.315,63.607L119.126,63.607L130.031,82.496L119.126,101.385L97.315,101.385Z" style="fill:rgb(255,171,0);fill-rule:nonzero;"/>
            </g>
        </g>
        <g transform="matrix(1,0,0,1,-117.323,-2.60698)">
            <g transform="matrix(1,0,0,1,244.462,381.912)">
                <path d="M61.411,122.218L50.505,103.329L61.411,84.44L83.222,84.44L94.127,103.329L83.222,122.218L61.411,122.218Z" style="fill:rgb(255,192,65);fill-rule:nonzero;"/>
            </g>
        </g>
        <g transform="matrix(1,0,0,1,-117.323,-2.60698)">
            <g transform="matrix(1,0,0,1,280.825,485.794)">
                <path d="M25.393,59.94L14.488,41.051L25.393,22.162L47.204,22.162L58.11,41.051L47.204,59.94L25.393,59.94Z" style="fill:rgb(255,171,0);fill-rule:nonzero;"/>
            </g>
        </g>
        <g transform="matrix(1,0,0,1,-117.323,-2.60698)">
            <g transform="matrix(1,0,0,1,280.825,485.794)">
                <path d="M61.411,80.995L50.505,62.106L61.411,43.217L83.222,43.217L94.127,62.106L83.222,80.995L61.411,80.995Z" style="fill:rgb(255,221,153);fill-rule:nonzero;"/>
            </g>
        </g>
        <g transform="matrix(1,0,0,1,-117.323,-2.60698)">
            <g transform="matrix(1,0,0,1,280.825,485.794)">
                <path d="M25.393,101.385L14.488,82.496L25.393,63.607L47.204,63.607L58.11,82.496L47.204,101.385L25.393,101.385Z" style="fill:rgb(255,171,0);fill-rule:nonzero;"/>
            </g>
        </g>
        <g transform="matrix(1,0,0,1,-117.323,-2.60698)">
            <g transform="matrix(1,0,0,1,280.825,485.794)">
                <path d="M61.411,39.772L50.505,20.883L61.411,1.994L83.222,1.994L94.127,20.883L83.222,39.772L61.411,39.772Z" style="fill:rgb(255,171,0);fill-rule:nonzero;"/>
            </g>
        </g>
        <g transform="matrix(1,0,0,1,-117.323,-2.60698)">
            <g transform="matrix(1,0,0,1,280.825,485.794)">
                <path d="M97.315,59.94L86.409,41.051L97.315,22.162L119.126,22.162L130.031,41.051L119.126,59.94L97.315,59.94Z" style="fill:rgb(255,171,0);fill-rule:nonzero;"/>
            </g>
        </g>
        <g transform="matrix(1,0,0,1,-117.323,-2.60698)">
            <g transform="matrix(1,0,0,1,280.825,485.794)">
                <path d="M97.315,101.385L86.409,82.496L97.315,63.607L119.126,63.607L130.031,82.496L119.126,101.385L97.315,101.385Z" style="fill:rgb(255,171,0);fill-rule:nonzero;"/>
            </g>
        </g>
        <g transform="matrix(1,0,0,1,-117.323,-2.60698)">
            <g transform="matrix(1,0,0,1,280.825,485.794)">
                <path d="M61.411,122.218L50.505,103.329L61.411,84.44L83.222,84.44L94.127,103.329L83.222,122.218L61.411,122.218Z" style="fill:rgb(255,192,65);fill-rule:nonzero;"/>
            </g>
        </g>
        <g transform="matrix(1,0,0,1,-117.323,-2.60698)">
            <g transform="matrix(1,0,0,1,388.215,216.774)">
                <path d="M25.393,59.94L14.488,41.051L25.393,22.162L47.204,22.162L58.11,41.051L47.204,59.94L25.393,59.94Z" style="fill:rgb(255,171,0);fill-rule:nonzero;"/>
            </g>
        </g>
        <g transform="matrix(1,0,0,1,-117.323,-2.60698)">
            <g transform="matrix(1,0,0,1,388.215,216.774)">
                <path d="M61.411,80.995L50.505,62.106L61.411,43.217L83.222,43.217L94.127,62.106L83.222,80.995L61.411,80.995Z" style="fill:rgb(255,171,0);fill-rule:nonzero;"/>
            </g>
        </g>
        <g transform="matrix(1,0,0,1,-117.323,-2.60698)">
            <g transform="matrix(1,0,0,1,388.215,216.774)">
                <path d="M25.393,101.385L14.488,82.496L25.393,63.607L47.204,63.607L58.11,82.496L47.204,101.385L25.393,101.385Z" style="fill:rgb(255,171,0);fill-rule:nonzero;"/>
            </g>
        </g>
        <g transform="matrix(1,0,0,1,-117.323,-2.60698)">
            <g transform="matrix(1,0,0,1,388.215,216.774)">
                <path d="M61.411,39.772L50.505,20.883L61.411,1.994L83.222,1.994L94.127,20.883L83.222,39.772L61.411,39.772Z" style="fill:rgb(255,192,65);fill-rule:nonzero;"/>
            </g>
        </g>
        <g transform="matrix(1,0,0,1,-117.323,-2.60698)">
            <g transform="matrix(1,0,0,1,388.215,216.774)">
                <path d="M97.315,59.94L86.409,41.051L97.315,22.162L119.126,22.162L130.031,41.051L119.126,59.94L97.315,59.94Z" style="fill:rgb(255,221,153);fill-rule:nonzero;"/>
            </g>
        </g>
        <g transform="matrix(1,0,0,1,-117.323,-2.60698)">
            <g transform="matrix(1,0,0,1,388.215,216.774)">
                <path d="M97.315,101.385L86.409,82.496L97.315,63.607L119.126,63.607L130.031,82.496L119.126,101.385L97.315,101.385Z" style="fill:rgb(255,171,0);fill-rule:nonzero;"/>
            </g>
        </g>
        <g transform="matrix(1,0,0,1,-117.323,-2.60698)">
            <g transform="matrix(1,0,0,1,388.215,216.774)">
                <path d="M61.411,122.218L50.505,103.329L61.411,84.44L83.222,84.44L94.127,103.329L83.222,122.218L61.411,122.218Z" style="fill:rgb(255,171,0);fill-rule:nonzero;"/>
            </g>
        </g>
        <g transform="matrix(1,0,0,1,-117.323,-2.60698)">
            <g transform="matrix(1,0,0,1,352.666,403.077)">
                <path d="M25.393,59.94L14.488,41.051L25.393,22.162L47.204,22.162L58.11,41.051L47.204,59.94L25.393,59.94Z" style="fill:rgb(255,171,0);fill-rule:nonzero;"/>
            </g>
        </g>
        <g transform="matrix(1,0,0,1,-117.323,-2.60698)">
            <g transform="matrix(1,0,0,1,352.666,403.077)">
                <path d="M61.411,80.995L50.505,62.106L61.411,43.217L83.222,43.217L94.127,62.106L83.222,80.995L61.411,80.995Z" style="fill:rgb(255,171,0);fill-rule:nonzero;"/>
            </g>
        </g>
        <g transform="matrix(1,0,0,1,-117.323,-2.60698)">
            <g transform="matrix(1,0,0,1,352.666,403.077)">
                <path d="M25.393,101.385L14.488,82.496L25.393,63.607L47.204,63.607L58.11,82.496L47.204,101.385L25.393,101.385Z" style="fill:rgb(255,192,65);fill-rule:nonzero;"/>
            </g>
        </g>
        <g transform="matrix(1,0,0,1,-117.323,-2.60698)">
            <g transform="matrix(1,0,0,1,352.666,403.077)">
                <path d="M61.411,39.772L50.505,20.883L61.411,1.994L83.222,1.994L94.127,20.883L83.222,39.772L61.411,39.772Z" style="fill:rgb(255,221,153);fill-rule:nonzero;"/>
            </g>
        </g>
        <g transform="matrix(1,0,0,1,-117.323,-2.60698)">
            <g transform="matrix(1,0,0,1,352.666,403.077)">
                <path d="M97.315,59.94L86.409,41.051L97.315,22.162L119.126,22.162L130.031,41.051L119.126,59.94L97.315,59.94Z" style="fill:rgb(255,171,0);fill-rule:nonzero;"/>
            </g>
        </g>
        <g transform="matrix(1,0,0,1,-117.323,-2.60698)">
            <g transform="matrix(1,0,0,1,352.666,403.077)">
                <path d="M97.315,101.385L86.409,82.496L97.315,63.607L119.126,63.607L130.031,82.496L119.126,101.385L97.315,101.385Z" style="fill:rgb(255,171,0);fill-rule:nonzero;"/>
            </g>
        </g>
        <g transform="matrix(1,0,0,1,-117.323,-2.60698)">
            <g transform="matrix(1,0,0,1,352.666,403.077)">
                <path d="M61.411,122.218L50.505,103.329L61.411,84.44L83.222,84.44L94.127,103.329L83.222,122.218L61.411,122.218Z" style="fill:rgb(255,171,0);fill-rule:nonzero;"/>
            </g>
        </g>
        <g transform="matrix(1,0,0,1,-117.323,-2.60698)">
            <g transform="matrix(1,0,0,1,425.51,320.735)">
                <path d="M25.393,59.94L14.488,41.051L25.393,22.162L47.204,22.162L58.11,41.051L47.204,59.94L25.393,59.94Z" style="fill:rgb(255,192,65);fill-rule:nonzero;"/>
            </g>
        </g>
        <g transform="matrix(1,0,0,1,-117.323,-2.60698)">
            <g transform="matrix(1,0,0,1,425.51,320.735)">
                <path d="M61.411,80.995L50.505,62.106L61.411,43.217L83.222,43.217L94.127,62.106L83.222,80.995L61.411,80.995Z" style="fill:rgb(255,171,0);fill-rule:nonzero;"/>
            </g>
        </g>
        <g transform="matrix(1,0,0,1,-117.323,-2.60698)">
            <g transform="matrix(1,0,0,1,425.51,320.735)">
                <path d="M25.393,101.385L14.488,82.496L25.393,63.607L47.204,63.607L58.11,82.496L47.204,101.385L25.393,101.385Z" style="fill:rgb(255,171,0);fill-rule:nonzero;"/>
            </g>
        </g>
        <g transform="matrix(1,0,0,1,-117.323,-2.60698)">
            <g transform="matrix(1,0,0,1,425.51,320.735)">
                <path d="M61.411,39.772L50.505,20.883L61.411,1.994L83.222,1.994L94.127,20.883L83.222,39.772L61.411,39.772Z" style="fill:rgb(255,171,0);fill-rule:nonzero;"/>
            </g>
        </g>
        <g transform="matrix(1,0,0,1,-117.323,-2.60698)">
            <g transform="matrix(1,0,0,1,425.51,320.735)">
                <path d="M97.315,59.94L86.409,41.051L97.315,22.162L119.126,22.162L130.031,41.051L119.126,59.94L97.315,59.94Z" style="fill:rgb(255,171,0);fill-rule:nonzero;"/>
            </g>
        </g>
        <g transform="matrix(1,0,0,1,-117.323,-2.60698)">
            <g transform="matrix(1,0,0,1,425.51,320.735)">
                <path d="M97.315,101.385L86.409,82.496L97.315,63.607L119.126,63.607L130.031,82.496L119.126,101.385L97.315,101.385Z" style="fill:rgb(255,221,153);fill-rule:nonzero;"/>
            </g>
        </g>
        <g transform="matrix(1,0,0,1,-117.323,-2.60698)">
            <g transform="matrix(1,0,0,1,425.51,320.735)">
                <path d="M61.411,122.218L50.505,103.329L61.411,84.44L83.222,84.44L94.127,103.329L83.222,122.218L61.411,122.218Z" style="fill:rgb(255,192,65);fill-rule:nonzero;"/>
            </g>
        </g>
        <g transform="matrix(1,0,0,1,-117.323,-2.60698)">
            <g transform="matrix(1,0,0,1,317.244,299.783)">
                <path d="M25.393,59.94L14.488,41.051L25.393,22.162L47.204,22.162L58.11,41.051L47.204,59.94L25.393,59.94Z" style="fill:rgb(255,171,0);fill-rule:nonzero;"/>
            </g>
        </g>
        <g transform="matrix(1,0,0,1,-117.323,-2.60698)">
            <g transform="matrix(1,0,0,1,317.244,299.783)">
                <path d="M61.411,80.995L50.505,62.106L61.411,43.217L83.222,43.217L94.127,62.106L83.222,80.995L61.411,80.995Z" style="fill:rgb(255,171,0);fill-rule:nonzero;"/>
            </g>
        </g>
        <g transform="matrix(1,0,0,1,-117.323,-2.60698)">
            <g transform="matrix(1,0,0,1,317.244,299.783)">
                <path d="M25.393,101.385L14.488,82.496L25.393,63.607L47.204,63.607L58.11,82.496L47.204,101.385L25.393,101.385Z" style="fill:rgb(255,221,153);fill-rule:nonzero;"/>
            </g>
        </g>
        <g transform="matrix(1,0,0,1,-117.323,-2.60698)">
            <g transform="matrix(1,0,0,1,317.244,299.783)">
                <path d="M61.411,39.772L50.505,20.883L61.411,1.994L83.222,1.994L94.127,20.883L83.222,39.772L61.411,39.772Z" style="fill:rgb(255,192,65);fill-rule:nonzero;"/>
            </g>
        </g>
        <g transform="matrix(1,0,0,1,-117.323,-2.60698)">
            <g transform="matrix(1,0,0,1,317.244,299.783)">
                <path d="M97.315,59.94L86.409,41.051L97.315,22.162L119.126,22.162L130.031,41.051L119.126,59.94L97.315,59.94Z" style="fill:rgb(255,221,153);fill-rule:nonzero;"/>
            </g>
        </g>
        <g transform="matrix(1,0,0,1,-117.323,-2.60698)">
            <g transform="matrix(1,0,0,1,317.244,299.783)">
                <path d="M97.315,101.385L86.409,82.496L97.315,63.607L119.126,63.607L130.031,82.496L119.126,101.385L97.315,101.385Z" style="fill:rgb(255,171,0);fill-rule:nonzero;"/>
            </g>
        </g>
        <g transform="matrix(1,0,0,1,-117.323,-2.60698)">
            <g transform="matrix(1,0,0,1,317.244,299.783)">
                <path d="M61.411,122.218L50.505,103.329L61.411,84.44L83.222,84.44L94.127,103.329L83.222,122.218L61.411,122.218Z" style="fill:rgb(255,192,65);fill-rule:nonzero;"/>
            </g>
        </g>
    </g>
</svg>
