<?xml version="1.0" encoding="UTF-8" standalone="no"?>
<!DOCTYPE svg PUBLIC "-//W3C//DTD SVG 1.1//EN" "http://www.w3.org/Graphics/SVG/1.1/DTD/svg11.dtd">
<svg width="100%" height="100%" viewBox="0 0 2133 481" version="1.1" xmlns="http://www.w3.org/2000/svg" xmlns:xlink="http://www.w3.org/1999/xlink" xml:space="preserve" style="fill-rule:evenodd;clip-rule:evenodd;stroke-linejoin:round;stroke-miterlimit:1.41421;">
    <g transform="matrix(1,0,0,1,-784.478,-502.699)">
        <g transform="matrix(1.73516,0,0,1.0501,0,0)">
            <g transform="matrix(0.576315,0,0,0.952287,326.295,0)">
                <g transform="matrix(3.88326,0,0,3.88326,219.303,502.699)">
                    <path d="M25.393,59.94L14.488,41.051L25.393,22.162L47.204,22.162L58.11,41.051L47.204,59.94L25.393,59.94Z" style="fill:rgb(255,171,0);fill-rule:nonzero;"/>
                </g>
                <g transform="matrix(3.88326,0,0,3.88326,219.303,502.699)">
                    <path d="M61.411,80.995L50.505,62.106L61.411,43.217L83.222,43.217L94.127,62.106L83.222,80.995L61.411,80.995Z" style="fill:rgb(235,117,13);fill-rule:nonzero;"/>
                </g>
                <g transform="matrix(3.88326,0,0,3.88326,219.303,502.699)">
                    <path d="M36.606,19.259L31.065,9.663L36.606,0.066L47.686,0.066L53.227,9.663L47.686,19.259L36.606,19.259Z" style="fill:rgb(255,171,0);fill-rule:nonzero;"/>
                </g>
                <g transform="matrix(3.88326,0,0,3.88326,219.303,502.699)">
                    <path d="M97.489,19.192L91.949,9.596L97.489,0L108.57,0L114.111,9.596L108.57,19.192L97.489,19.192Z" style="fill:rgb(255,171,0);fill-rule:nonzero;"/>
                </g>
                <g transform="matrix(3.88326,0,0,3.88326,219.303,502.699)">
                    <path d="M97.333,123.691L91.792,114.095L97.333,104.498L108.414,104.498L113.954,114.095L108.414,123.691L97.333,123.691Z" style="fill:rgb(255,171,0);fill-rule:nonzero;"/>
                </g>
                <g transform="matrix(3.88326,0,0,3.88326,219.303,502.699)">
                    <path d="M128.391,71.702L122.85,62.106L128.391,52.51L139.472,52.51L145.012,62.106L139.472,71.702L128.391,71.702Z" style="fill:rgb(255,171,0);fill-rule:nonzero;"/>
                </g>
                <g transform="matrix(3.88326,0,0,3.88326,218.303,502.699)">
                    <path d="M5.54,71.702L0,62.106L5.54,52.51L16.621,52.51L22.162,62.106L16.621,71.702L5.54,71.702Z" style="fill:rgb(255,171,0);fill-rule:nonzero;"/>
                </g>
                <g transform="matrix(3.88326,0,0,3.88326,219.303,502.699)">
                    <path d="M36.219,123.85L30.679,114.254L36.219,104.658L47.3,104.658L52.84,114.254L47.3,123.85L36.219,123.85Z" style="fill:rgb(255,171,0);fill-rule:nonzero;"/>
                </g>
                <g transform="matrix(3.88326,0,0,3.88326,219.303,502.699)">
                    <path d="M25.393,101.385L14.488,82.496L25.393,63.607L47.204,63.607L58.11,82.496L47.204,101.385L25.393,101.385Z" style="fill:rgb(255,171,0);fill-rule:nonzero;"/>
                </g>
                <g transform="matrix(3.88326,0,0,3.88326,219.303,502.699)">
                    <path d="M61.411,39.772L50.505,20.883L61.411,1.994L83.222,1.994L94.127,20.883L83.222,39.772L61.411,39.772Z" style="fill:rgb(255,171,0);fill-rule:nonzero;"/>
                </g>
                <g transform="matrix(3.88326,0,0,3.88326,219.303,502.699)">
                    <path d="M97.315,59.94L86.409,41.051L97.315,22.162L119.126,22.162L130.031,41.051L119.126,59.94L97.315,59.94Z" style="fill:rgb(255,171,0);fill-rule:nonzero;"/>
                </g>
                <g transform="matrix(3.88326,0,0,3.88326,219.303,502.699)">
                    <path d="M97.315,101.385L86.409,82.496L97.315,63.607L119.126,63.607L130.031,82.496L119.126,101.385L97.315,101.385Z" style="fill:rgb(255,171,0);fill-rule:nonzero;"/>
                </g>
                <g transform="matrix(3.88326,0,0,3.88326,219.303,502.699)">
                    <path d="M61.411,122.218L50.505,103.329L61.411,84.44L83.222,84.44L94.127,103.329L83.222,122.218L61.411,122.218Z" style="fill:rgb(255,171,0);fill-rule:nonzero;"/>
                </g>
            </g>
        </g>
        <g transform="matrix(1.73516,0,0,1.0501,0,0)">
            <g transform="matrix(1.29916,0,0,2.14669,-397.168,-777.206)">
                <path d="M1043.26,623.932L1043.26,758.908L1037.88,758.908L1037.88,692.572L947.161,692.572L947.161,758.908L941.881,758.908L941.881,623.932L947.161,623.932L947.161,688.348L1037.88,688.348L1037.88,623.932L1043.26,623.932Z" style="fill:rgb(235,117,13);fill-rule:nonzero;"/>
                <rect x="1086.07" y="623.932" width="5.28" height="134.976" style="fill:rgb(235,117,13);fill-rule:nonzero;"/>
                <path d="M1233.05,623.932L1176.99,758.908L1172.28,758.908L1116.22,623.932L1120.35,623.932C1121.43,623.932 1122.14,624.476 1122.46,625.564L1172.57,746.428C1172.95,747.452 1173.32,748.492 1173.67,749.548C1174.03,750.604 1174.36,751.676 1174.68,752.764C1175.26,750.588 1175.93,748.476 1176.7,746.428L1226.71,625.564C1227.03,624.476 1227.8,623.932 1229.02,623.932L1233.05,623.932Z" style="fill:rgb(235,117,13);fill-rule:nonzero;"/>
                <path d="M1337.79,754.396L1337.59,758.908L1257.91,758.908L1257.91,623.932L1337.59,623.932L1337.59,628.444L1263.19,628.444L1263.19,688.252L1325.88,688.252L1325.88,692.668L1263.19,692.668L1263.19,754.396L1337.79,754.396Z" style="fill:rgb(235,117,13);fill-rule:nonzero;"/>
                <path d="M1470.94,623.932L1470.94,758.908L1468.73,758.908C1467.9,758.908 1467.19,758.524 1466.62,757.756L1373.98,632.572C1374.04,633.148 1374.09,633.74 1374.12,634.348C1374.15,634.956 1374.17,635.516 1374.17,636.028L1374.17,758.908L1369.56,758.908L1369.56,623.932L1371.96,623.932C1372.47,623.932 1372.89,624.012 1373.21,624.172C1373.53,624.332 1373.88,624.668 1374.27,625.18L1466.52,749.884C1466.46,749.308 1466.41,748.732 1466.38,748.156C1466.35,747.58 1466.33,747.036 1466.33,746.524L1466.33,623.932L1470.94,623.932Z" style="fill:rgb(235,117,13);fill-rule:nonzero;"/>
                <path d="M1599.58,628.54L1550.14,628.54L1550.14,758.908L1544.86,758.908L1544.86,628.54L1495.13,628.54L1495.13,623.932L1599.58,623.932L1599.58,628.54Z" style="fill:rgb(235,117,13);fill-rule:nonzero;"/>
            </g>
        </g>
    </g>
</svg>
