<?xml version="1.0" encoding="UTF-8" standalone="no"?>
<!DOCTYPE svg PUBLIC "-//W3C//DTD SVG 1.1//EN" "http://www.w3.org/Graphics/SVG/1.1/DTD/svg11.dtd">
<svg width="100%" height="100%" viewBox="0 0 2147 481" version="1.1" xmlns="http://www.w3.org/2000/svg" xmlns:xlink="http://www.w3.org/1999/xlink" xml:space="preserve" style="fill-rule:evenodd;clip-rule:evenodd;stroke-linejoin:round;stroke-miterlimit:1.41421;">
    <g transform="matrix(1,0,0,1,-784.478,-2285.77)">
        <g transform="matrix(1.73516,0,0,1.0501,0,1783.08)">
            <g>
                <g transform="matrix(2.23798,0,0,3.69798,452.683,478.713)">
                    <path d="M25.393,59.94L14.488,41.051L25.393,22.162L47.204,22.162L58.11,41.051L47.204,59.94L25.393,59.94Z" style="fill:white;fill-opacity:0.498039;fill-rule:nonzero;"/>
                </g>
                <g transform="matrix(2.23798,0,0,3.69798,452.683,478.713)">
                    <path d="M61.411,80.995L50.505,62.106L61.411,43.217L83.222,43.217L94.127,62.106L83.222,80.995L61.411,80.995Z" style="fill:white;fill-rule:nonzero;"/>
                </g>
                <g transform="matrix(2.23798,0,0,3.69798,452.683,478.713)">
                    <path d="M36.606,19.259L31.065,9.663L36.606,0.066L47.686,0.066L53.227,9.663L47.686,19.259L36.606,19.259Z" style="fill:white;fill-opacity:0.498039;fill-rule:nonzero;"/>
                </g>
                <g transform="matrix(2.23798,0,0,3.69798,452.683,478.713)">
                    <path d="M97.489,19.192L91.949,9.596L97.489,0L108.57,0L114.111,9.596L108.57,19.192L97.489,19.192Z" style="fill:white;fill-opacity:0.498039;fill-rule:nonzero;"/>
                </g>
                <g transform="matrix(2.23798,0,0,3.69798,452.683,478.713)">
                    <path d="M97.333,123.691L91.792,114.095L97.333,104.498L108.414,104.498L113.954,114.095L108.414,123.691L97.333,123.691Z" style="fill:white;fill-opacity:0.498039;fill-rule:nonzero;"/>
                </g>
                <g transform="matrix(2.23798,0,0,3.69798,452.683,478.713)">
                    <path d="M128.391,71.702L122.85,62.106L128.391,52.51L139.472,52.51L145.012,62.106L139.472,71.702L128.391,71.702Z" style="fill:white;fill-opacity:0.498039;fill-rule:nonzero;"/>
                </g>
                <g transform="matrix(2.23798,0,0,3.69798,452.106,478.713)">
                    <path d="M5.54,71.702L0,62.106L5.54,52.51L16.621,52.51L22.162,62.106L16.621,71.702L5.54,71.702Z" style="fill:white;fill-opacity:0.498039;fill-rule:nonzero;"/>
                </g>
                <g transform="matrix(2.23798,0,0,3.69798,452.683,478.713)">
                    <path d="M36.219,123.85L30.679,114.254L36.219,104.658L47.3,104.658L52.84,114.254L47.3,123.85L36.219,123.85Z" style="fill:white;fill-opacity:0.498039;fill-rule:nonzero;"/>
                </g>
                <g transform="matrix(2.23798,0,0,3.69798,452.683,478.713)">
                    <path d="M25.393,101.385L14.488,82.496L25.393,63.607L47.204,63.607L58.11,82.496L47.204,101.385L25.393,101.385Z" style="fill:white;fill-opacity:0.498039;fill-rule:nonzero;"/>
                </g>
                <g transform="matrix(2.23798,0,0,3.69798,452.683,478.713)">
                    <path d="M61.411,39.772L50.505,20.883L61.411,1.994L83.222,1.994L94.127,20.883L83.222,39.772L61.411,39.772Z" style="fill:white;fill-opacity:0.498039;fill-rule:nonzero;"/>
                </g>
                <g transform="matrix(2.23798,0,0,3.69798,452.683,478.713)">
                    <path d="M97.315,59.94L86.409,41.051L97.315,22.162L119.126,22.162L130.031,41.051L119.126,59.94L97.315,59.94Z" style="fill:white;fill-opacity:0.498039;fill-rule:nonzero;"/>
                </g>
                <g transform="matrix(2.23798,0,0,3.69798,452.683,478.713)">
                    <path d="M97.315,101.385L86.409,82.496L97.315,63.607L119.126,63.607L130.031,82.496L119.126,101.385L97.315,101.385Z" style="fill:white;fill-opacity:0.498039;fill-rule:nonzero;"/>
                </g>
                <g transform="matrix(2.23798,0,0,3.69798,452.683,478.713)">
                    <path d="M61.411,122.218L50.505,103.329L61.411,84.44L83.222,84.44L94.127,103.329L83.222,122.218L61.411,122.218Z" style="fill:white;fill-opacity:0.498039;fill-rule:nonzero;"/>
                </g>
            </g>
        </g>
        <g transform="matrix(1.73516,0,0,1.0501,0,1783.08)">
            <g transform="matrix(1.29916,0,0,2.14669,-397.168,-777.206)">
                <path d="M1045.37,623.068L1045.37,758.908L1035.48,758.908L1035.48,693.82L950.425,693.82L950.425,758.908L940.537,758.908L940.537,623.068L950.425,623.068L950.425,686.428L1035.48,686.428L1035.48,623.068L1045.37,623.068Z" style="fill:white;fill-rule:nonzero;"/>
                <rect x="1085.5" y="623.068" width="9.888" height="135.84" style="fill:white;fill-rule:nonzero;"/>
                <path d="M1238.81,623.068L1182.75,758.908L1174.01,758.908L1117.94,623.068L1125.72,623.068C1126.62,623.068 1127.35,623.308 1127.93,623.788C1128.51,624.268 1128.95,624.892 1129.27,625.66L1175.55,738.364C1176.06,739.772 1176.57,741.276 1177.08,742.876C1177.59,744.476 1178.07,746.108 1178.52,747.772C1178.9,746.108 1179.32,744.476 1179.77,742.876C1180.22,741.276 1180.73,739.772 1181.31,738.364L1227.48,625.66C1227.74,624.956 1228.18,624.348 1228.83,623.836C1229.46,623.324 1230.23,623.068 1231.13,623.068L1238.81,623.068Z" style="fill:white;fill-rule:nonzero;"/>
                <path d="M1342.97,750.748L1342.78,758.908L1261.37,758.908L1261.37,623.068L1342.78,623.068L1342.78,631.228L1271.26,631.228L1271.26,686.14L1330.78,686.14L1330.78,694.108L1271.26,694.108L1271.26,750.748L1342.97,750.748Z" style="fill:white;fill-rule:nonzero;"/>
                <path d="M1477.56,623.068L1477.56,758.908L1472.95,758.908C1472.12,758.908 1471.43,758.764 1470.89,758.476C1470.35,758.188 1469.82,757.692 1469.31,756.988L1381.08,639.1C1381.27,641.02 1381.37,642.844 1381.37,644.572L1381.37,758.908L1372.73,758.908L1372.73,623.068L1377.62,623.068C1378.52,623.068 1379.21,623.18 1379.69,623.404C1380.17,623.628 1380.7,624.124 1381.27,624.892L1469.31,742.492C1469.11,740.572 1469.02,738.748 1469.02,737.02L1469.02,623.068L1477.56,623.068Z" style="fill:white;fill-rule:nonzero;"/>
                <path d="M1606.01,631.42L1558.3,631.42L1558.3,758.908L1548.41,758.908L1548.41,631.42L1500.41,631.42L1500.41,623.068L1606.01,623.068L1606.01,631.42Z" style="fill:white;fill-rule:nonzero;"/>
            </g>
        </g>
    </g>
</svg>
