<?xml version="1.0" encoding="UTF-8"?>
<!DOCTYPE svg PUBLIC "-//W3C//DTD SVG 1.1//EN" "http://www.w3.org/Graphics/SVG/1.1/DTD/svg11.dtd">
<svg version="1.1" xmlns="http://www.w3.org/2000/svg" xmlns:xlink="http://www.w3.org/1999/xlink" x="0" y="0" width="424.245" height="123.85" viewBox="0, 0, 424.245, 123.85">
  <g id="Layer_1" transform="translate(-187.762, -225.534)">
    <g>
      <g>
        <path d="M213.155,285.474 L202.25,266.586 L213.155,247.697 L234.966,247.697 L245.872,266.586 L234.966,285.474 z" fill="#FFAB00"/>
        <path d="M249.173,306.529 L238.267,287.64 L249.173,268.751 L270.984,268.751 L281.889,287.64 L270.984,306.529 z" fill="#EB750E"/>
        <path d="M224.367,244.793 L218.827,235.197 L224.367,225.601 L235.448,225.601 L240.989,235.197 L235.448,244.793 z" fill="#FFAB00"/>
        <path d="M285.251,244.727 L279.711,235.131 L285.251,225.534 L296.332,225.534 L301.873,235.131 L296.332,244.727 z" fill="#FFAB00"/>
        <path d="M285.095,349.225 L279.554,339.629 L285.095,330.033 L296.175,330.033 L301.716,339.629 L296.175,349.225 z" fill="#FFAB00"/>
        <path d="M316.152,297.237 L310.612,287.64 L316.152,278.044 L327.233,278.044 L332.774,287.64 L327.233,297.237 z" fill="#FFAB00"/>
        <path d="M193.302,297.237 L187.762,287.64 L193.302,278.044 L204.383,278.044 L209.924,287.64 L204.383,297.237 z" fill="#FFAB00"/>
        <path d="M223.981,349.385 L218.44,339.788 L223.981,330.192 L235.062,330.192 L240.602,339.788 L235.062,349.385 z" fill="#FFAB00"/>
        <path d="M213.155,326.919 L202.25,308.03 L213.155,289.141 L234.966,289.141 L245.872,308.03 L234.966,326.919 z" fill="#FFAB00"/>
        <path d="M249.173,265.306 L238.267,246.417 L249.173,227.528 L270.984,227.528 L281.889,246.417 L270.984,265.306 z" fill="#FFAB00"/>
        <path d="M285.077,285.474 L274.171,266.586 L285.077,247.697 L306.888,247.697 L317.793,266.586 L306.888,285.474 z" fill="#FFAB00"/>
        <path d="M285.077,326.919 L274.171,308.03 L285.077,289.141 L306.888,289.141 L317.793,308.03 L306.888,326.919 z" fill="#FFAB00"/>
        <path d="M249.173,347.752 L238.267,328.863 L249.173,309.974 L270.984,309.974 L281.889,328.863 L270.984,347.752 z" fill="#FFAB00"/>
      </g>
      <path d="M350.157,320.111 Q349.507,319.461 349.507,318.461 L349.507,252.061 Q349.507,250.961 350.157,250.361 Q350.807,249.761 351.807,249.761 L356.407,249.761 Q357.507,249.761 358.107,250.361 Q358.707,250.961 358.707,252.061 L358.707,275.361 Q361.607,271.661 365.557,269.711 Q369.507,267.761 375.307,267.761 Q384.907,267.761 390.257,273.911 Q395.607,280.061 395.607,290.161 L395.607,318.461 Q395.607,319.461 394.957,320.111 Q394.307,320.761 393.307,320.761 L388.607,320.761 Q387.607,320.761 386.957,320.111 Q386.307,319.461 386.307,318.461 L386.307,290.761 Q386.307,283.561 382.807,279.561 Q379.307,275.561 372.707,275.561 Q366.307,275.561 362.507,279.611 Q358.707,283.661 358.707,290.761 L358.707,318.461 Q358.707,319.461 358.057,320.111 Q357.407,320.761 356.407,320.761 L351.807,320.761 Q350.807,320.761 350.157,320.111 z" fill="#EB750D"/>
      <path d="M405.957,258.311 Q405.307,257.661 405.307,256.661 L405.307,251.461 Q405.307,250.461 405.957,249.761 Q406.607,249.061 407.607,249.061 L413.507,249.061 Q414.507,249.061 415.207,249.761 Q415.907,250.461 415.907,251.461 L415.907,256.661 Q415.907,257.661 415.207,258.311 Q414.507,258.961 413.507,258.961 L407.607,258.961 Q406.607,258.961 405.957,258.311 z M406.757,320.111 Q406.107,319.461 406.107,318.461 L406.107,271.061 Q406.107,270.061 406.757,269.411 Q407.407,268.761 408.407,268.761 L412.807,268.761 Q413.807,268.761 414.457,269.411 Q415.107,270.061 415.107,271.061 L415.107,318.461 Q415.107,319.461 414.457,320.111 Q413.807,320.761 412.807,320.761 L408.407,320.761 Q407.407,320.761 406.757,320.111 z" fill="#EB750D"/>
      <path d="M440.507,318.261 L421.907,271.861 Q421.807,271.561 421.807,270.861 Q421.807,269.961 422.407,269.361 Q423.007,268.761 423.807,268.761 L428.407,268.761 Q430.007,268.761 430.807,270.361 L446.207,310.261 L461.607,270.361 Q461.807,269.761 462.457,269.261 Q463.107,268.761 464.007,268.761 L468.607,268.761 Q469.407,268.761 470.007,269.361 Q470.607,269.961 470.607,270.861 L470.407,271.861 L451.907,318.261 Q450.807,320.761 448.207,320.761 L444.207,320.761 Q441.607,320.761 440.507,318.261 z" fill="#EB750D"/>
      <path d="M479.707,315.411 Q473.607,309.061 473.007,298.061 L472.907,294.661 L473.007,291.361 Q473.607,280.561 479.707,274.161 Q485.807,267.761 496.007,267.761 Q507.007,267.761 513.057,274.761 Q519.107,281.761 519.107,293.761 L519.107,295.561 Q519.107,296.561 518.457,297.211 Q517.807,297.861 516.807,297.861 L482.107,297.861 L482.107,298.761 Q482.407,305.261 486.107,309.861 Q489.807,314.461 495.907,314.461 Q500.607,314.461 503.557,312.611 Q506.507,310.761 508.007,308.761 Q508.907,307.561 509.407,307.311 Q509.907,307.061 511.107,307.061 L515.507,307.061 Q516.407,307.061 517.057,307.561 Q517.707,308.061 517.707,308.861 Q517.707,311.061 515.007,314.161 Q512.307,317.261 507.357,319.511 Q502.407,321.761 496.007,321.761 Q485.807,321.761 479.707,315.411 z M510.007,291.061 L510.007,290.761 Q510.007,283.761 506.207,279.361 Q502.407,274.961 496.007,274.961 Q489.507,274.961 485.807,279.361 Q482.107,283.761 482.107,290.761 L482.107,291.061 z" fill="#EB750D"/>
      <path d="M527.957,320.111 Q527.307,319.461 527.307,318.461 L527.307,271.061 Q527.307,270.061 527.957,269.411 Q528.607,268.761 529.607,268.761 L533.907,268.761 Q535.007,268.761 535.607,269.361 Q536.207,269.961 536.207,271.061 L536.207,275.461 Q539.207,271.761 543.157,269.761 Q547.107,267.761 553.007,267.761 Q562.607,267.761 567.907,273.911 Q573.207,280.061 573.207,290.161 L573.207,318.461 Q573.207,319.461 572.557,320.111 Q571.907,320.761 570.907,320.761 L566.307,320.761 Q565.307,320.761 564.657,320.111 Q564.007,319.461 564.007,318.461 L564.007,290.761 Q564.007,283.561 560.507,279.561 Q557.007,275.561 550.507,275.561 Q544.107,275.561 540.307,279.611 Q536.507,283.661 536.507,290.761 L536.507,318.461 Q536.507,319.461 535.857,320.111 Q535.207,320.761 534.207,320.761 L529.607,320.761 Q528.607,320.761 527.957,320.111 z" fill="#EB750D"/>
      <path d="M587.507,303.261 L587.507,276.461 L579.607,276.461 Q578.607,276.461 578.007,275.861 Q577.407,275.261 577.407,274.261 L577.407,271.061 Q577.407,270.061 578.007,269.411 Q578.607,268.761 579.607,268.761 L587.507,268.761 L587.507,252.061 Q587.507,251.061 588.107,250.411 Q588.707,249.761 589.707,249.761 L594.107,249.761 Q595.107,249.761 595.757,250.411 Q596.407,251.061 596.407,252.061 L596.407,268.761 L608.807,268.761 Q609.807,268.761 610.457,269.411 Q611.107,270.061 611.107,271.061 L611.107,274.261 Q611.107,275.261 610.457,275.861 Q609.807,276.461 608.807,276.461 L596.407,276.461 L596.407,302.561 Q596.407,307.661 598.057,310.261 Q599.707,312.861 603.707,312.861 L609.807,312.861 Q610.807,312.861 611.407,313.511 Q612.007,314.161 612.007,315.161 L612.007,318.461 Q612.007,319.461 611.407,320.111 Q610.807,320.761 609.807,320.761 L603.007,320.761 Q587.507,320.761 587.507,303.261 z" fill="#EB750D"/>
    </g>
  </g>
</svg>
