<?xml version="1.0" encoding="UTF-8"?>
<!DOCTYPE svg PUBLIC "-//W3C//DTD SVG 1.1//EN" "http://www.w3.org/Graphics/SVG/1.1/DTD/svg11.dtd">
<svg version="1.1" xmlns="http://www.w3.org/2000/svg" xmlns:xlink="http://www.w3.org/1999/xlink" x="0" y="0" width="424.245" height="123.85" viewBox="0, 0, 424.245, 123.85">
  <g id="Layer_1" transform="translate(-187.762, -1015.115)">
    <g>
      <path d="M213.155,1075.056 L202.25,1056.167 L213.155,1037.278 L234.966,1037.278 L245.872,1056.167 L234.966,1075.056 z" fill="#FFFFFF" fill-opacity="0.503"/>
      <path d="M249.173,1096.11 L238.267,1077.221 L249.173,1058.332 L270.984,1058.332 L281.889,1077.221 L270.984,1096.11 z" fill="#FFFFFF"/>
      <path d="M224.367,1034.374 L218.827,1024.778 L224.367,1015.182 L235.448,1015.182 L240.989,1024.778 L235.448,1034.374 z" fill="#FFFFFF" fill-opacity="0.503"/>
      <path d="M285.251,1034.308 L279.711,1024.712 L285.251,1015.115 L296.332,1015.115 L301.873,1024.712 L296.332,1034.308 z" fill="#FFFFFF" fill-opacity="0.503"/>
      <path d="M285.095,1138.806 L279.554,1129.21 L285.095,1119.614 L296.175,1119.614 L301.716,1129.21 L296.175,1138.806 z" fill="#FFFFFF" fill-opacity="0.503"/>
      <path d="M316.152,1086.818 L310.612,1077.221 L316.152,1067.625 L327.233,1067.625 L332.774,1077.221 L327.233,1086.818 z" fill="#FFFFFF" fill-opacity="0.503"/>
      <path d="M193.302,1086.818 L187.762,1077.221 L193.302,1067.625 L204.383,1067.625 L209.924,1077.221 L204.383,1086.818 z" fill="#FFFFFF" fill-opacity="0.503"/>
      <path d="M223.981,1138.966 L218.44,1129.369 L223.981,1119.773 L235.062,1119.773 L240.602,1129.369 L235.062,1138.966 z" fill="#FFFFFF" fill-opacity="0.503"/>
      <path d="M213.155,1116.5 L202.25,1097.611 L213.155,1078.722 L234.966,1078.722 L245.872,1097.611 L234.966,1116.5 z" fill="#FFFFFF" fill-opacity="0.503"/>
      <path d="M249.173,1054.887 L238.267,1035.998 L249.173,1017.109 L270.984,1017.109 L281.889,1035.998 L270.984,1054.887 z" fill="#FFFFFF" fill-opacity="0.503"/>
      <path d="M285.077,1075.056 L274.171,1056.167 L285.077,1037.278 L306.888,1037.278 L317.793,1056.167 L306.888,1075.056 z" fill="#FFFFFF" fill-opacity="0.503"/>
      <path d="M285.077,1116.5 L274.171,1097.611 L285.077,1078.722 L306.888,1078.722 L317.793,1097.611 L306.888,1116.5 z" fill="#FFFFFF" fill-opacity="0.503"/>
      <path d="M249.173,1137.333 L238.267,1118.444 L249.173,1099.556 L270.984,1099.556 L281.889,1118.444 L270.984,1137.333 z" fill="#FFFFFF" fill-opacity="0.503"/>
      <path d="M350.157,1109.693 Q349.507,1109.043 349.507,1108.043 L349.507,1041.643 Q349.507,1040.543 350.157,1039.943 Q350.807,1039.343 351.807,1039.343 L356.407,1039.343 Q357.507,1039.343 358.107,1039.943 Q358.707,1040.543 358.707,1041.643 L358.707,1064.943 Q361.607,1061.243 365.557,1059.293 Q369.507,1057.343 375.307,1057.343 Q384.907,1057.343 390.257,1063.493 Q395.607,1069.643 395.607,1079.743 L395.607,1108.043 Q395.607,1109.043 394.957,1109.693 Q394.307,1110.343 393.307,1110.343 L388.607,1110.343 Q387.607,1110.343 386.957,1109.693 Q386.307,1109.043 386.307,1108.043 L386.307,1080.343 Q386.307,1073.143 382.807,1069.143 Q379.307,1065.143 372.707,1065.143 Q366.307,1065.143 362.507,1069.193 Q358.707,1073.243 358.707,1080.343 L358.707,1108.043 Q358.707,1109.043 358.057,1109.693 Q357.407,1110.343 356.407,1110.343 L351.807,1110.343 Q350.807,1110.343 350.157,1109.693 z" fill="#FFFFFF"/>
      <path d="M405.957,1047.893 Q405.307,1047.243 405.307,1046.243 L405.307,1041.042 Q405.307,1040.042 405.957,1039.343 Q406.607,1038.643 407.607,1038.643 L413.507,1038.643 Q414.507,1038.643 415.207,1039.343 Q415.907,1040.042 415.907,1041.042 L415.907,1046.243 Q415.907,1047.243 415.207,1047.893 Q414.507,1048.542 413.507,1048.542 L407.607,1048.542 Q406.607,1048.542 405.957,1047.893 z M406.757,1109.693 Q406.107,1109.042 406.107,1108.042 L406.107,1060.643 Q406.107,1059.643 406.757,1058.993 Q407.407,1058.343 408.407,1058.343 L412.807,1058.343 Q413.807,1058.343 414.457,1058.993 Q415.107,1059.643 415.107,1060.643 L415.107,1108.042 Q415.107,1109.042 414.457,1109.693 Q413.807,1110.343 412.807,1110.343 L408.407,1110.343 Q407.407,1110.343 406.757,1109.693 z" fill="#FFFFFF"/>
      <path d="M440.507,1107.843 L421.907,1061.443 Q421.807,1061.143 421.807,1060.443 Q421.807,1059.543 422.407,1058.943 Q423.007,1058.343 423.807,1058.343 L428.407,1058.343 Q430.007,1058.343 430.807,1059.943 L446.207,1099.843 L461.607,1059.943 Q461.807,1059.343 462.457,1058.843 Q463.107,1058.343 464.007,1058.343 L468.607,1058.343 Q469.407,1058.343 470.007,1058.943 Q470.607,1059.543 470.607,1060.443 L470.407,1061.443 L451.907,1107.843 Q450.807,1110.343 448.207,1110.343 L444.207,1110.343 Q441.607,1110.343 440.507,1107.843 z" fill="#FFFFFF"/>
      <path d="M479.707,1104.993 Q473.607,1098.643 473.007,1087.643 L472.907,1084.243 L473.007,1080.943 Q473.607,1070.143 479.707,1063.743 Q485.807,1057.343 496.007,1057.343 Q507.007,1057.343 513.057,1064.343 Q519.107,1071.343 519.107,1083.343 L519.107,1085.143 Q519.107,1086.143 518.457,1086.793 Q517.807,1087.443 516.807,1087.443 L482.107,1087.443 L482.107,1088.343 Q482.407,1094.843 486.107,1099.443 Q489.807,1104.043 495.907,1104.043 Q500.607,1104.043 503.557,1102.193 Q506.507,1100.343 508.007,1098.343 Q508.907,1097.143 509.407,1096.893 Q509.907,1096.643 511.107,1096.643 L515.507,1096.643 Q516.407,1096.643 517.057,1097.143 Q517.707,1097.643 517.707,1098.443 Q517.707,1100.643 515.007,1103.743 Q512.307,1106.843 507.357,1109.093 Q502.407,1111.343 496.007,1111.343 Q485.807,1111.343 479.707,1104.993 z M510.007,1080.643 L510.007,1080.343 Q510.007,1073.343 506.207,1068.943 Q502.407,1064.543 496.007,1064.543 Q489.507,1064.543 485.807,1068.943 Q482.107,1073.343 482.107,1080.343 L482.107,1080.643 z" fill="#FFFFFF"/>
      <path d="M527.957,1109.693 Q527.307,1109.043 527.307,1108.043 L527.307,1060.643 Q527.307,1059.643 527.957,1058.993 Q528.607,1058.343 529.607,1058.343 L533.907,1058.343 Q535.007,1058.343 535.607,1058.943 Q536.207,1059.543 536.207,1060.643 L536.207,1065.043 Q539.207,1061.343 543.157,1059.343 Q547.107,1057.343 553.007,1057.343 Q562.607,1057.343 567.907,1063.493 Q573.207,1069.643 573.207,1079.743 L573.207,1108.043 Q573.207,1109.043 572.557,1109.693 Q571.907,1110.343 570.907,1110.343 L566.307,1110.343 Q565.307,1110.343 564.657,1109.693 Q564.007,1109.043 564.007,1108.043 L564.007,1080.343 Q564.007,1073.143 560.507,1069.143 Q557.007,1065.143 550.507,1065.143 Q544.107,1065.143 540.307,1069.193 Q536.507,1073.243 536.507,1080.343 L536.507,1108.043 Q536.507,1109.043 535.857,1109.693 Q535.207,1110.343 534.207,1110.343 L529.607,1110.343 Q528.607,1110.343 527.957,1109.693 z" fill="#FFFFFF"/>
      <path d="M587.507,1092.843 L587.507,1066.043 L579.607,1066.043 Q578.607,1066.043 578.007,1065.443 Q577.407,1064.843 577.407,1063.843 L577.407,1060.643 Q577.407,1059.643 578.007,1058.993 Q578.607,1058.343 579.607,1058.343 L587.507,1058.343 L587.507,1041.643 Q587.507,1040.643 588.107,1039.993 Q588.707,1039.343 589.707,1039.343 L594.107,1039.343 Q595.107,1039.343 595.757,1039.993 Q596.407,1040.643 596.407,1041.643 L596.407,1058.343 L608.807,1058.343 Q609.807,1058.343 610.457,1058.993 Q611.107,1059.643 611.107,1060.643 L611.107,1063.843 Q611.107,1064.843 610.457,1065.443 Q609.807,1066.043 608.807,1066.043 L596.407,1066.043 L596.407,1092.143 Q596.407,1097.243 598.057,1099.843 Q599.707,1102.443 603.707,1102.443 L609.807,1102.443 Q610.807,1102.443 611.407,1103.093 Q612.007,1103.743 612.007,1104.743 L612.007,1108.043 Q612.007,1109.043 611.407,1109.693 Q610.807,1110.343 609.807,1110.343 L603.007,1110.343 Q587.507,1110.343 587.507,1092.843 z" fill="#FFFFFF"/>
    </g>
  </g>
</svg>
